<svg width="98" height="33" viewBox="0 0 98 33" fill="none" xmlns="http://www.w3.org/2000/svg">
<g clip-path="url(#clip0_18002_10135)">
<g clip-path="url(#clip1_18002_10135)">
<path d="M24.6777 16.941C24.6777 22.0955 20.4992 26.274 15.3447 26.274C10.1902 26.274 6.01172 22.0955 6.01172 16.941C6.01172 11.7865 10.1902 7.608 15.3447 7.608C20.4992 7.608 24.6777 11.7865 24.6777 16.941Z" stroke="#005242" stroke-width="1.931" stroke-linecap="round" stroke-linejoin="round"/>
<path d="M15.3452 10.505C17.0524 10.505 18.6897 11.1832 19.8968 12.3904C21.104 13.5975 21.7822 15.2348 21.7822 16.942H8.9082C8.9082 15.2348 9.58639 13.5975 10.7936 12.3904C12.0007 11.1832 13.638 10.505 15.3452 10.505Z" fill="#005242"/>
<path d="M44.3068 26.713C42.7268 26.713 41.3548 26.417 40.1868 25.825C39.0388 25.232 38.1418 24.487 37.4958 23.59C36.8488 22.675 36.4358 21.723 36.2568 20.736L39.7028 19.82C39.9728 20.915 40.5108 21.768 41.3188 22.378C42.1258 22.988 43.1408 23.294 44.3608 23.294C45.2948 23.294 46.0478 23.06 46.6228 22.594C47.2148 22.127 47.5108 21.571 47.5108 20.924C47.5108 20.332 47.2958 19.82 46.8648 19.39C46.4518 18.941 45.8868 18.645 45.1688 18.501L42.1528 17.909C40.5558 17.604 39.2988 16.913 38.3838 15.836C37.4678 14.759 37.0108 13.449 37.0108 11.905C37.0108 10.828 37.3158 9.841 37.9258 8.943C38.5555 8.02681 39.4079 7.2859 40.4028 6.79C41.4301 6.27295 42.5648 6.00571 43.7148 6.01C45.2048 6.01 46.4698 6.26 47.5108 6.763C48.5518 7.266 49.3598 7.903 49.9338 8.675C50.5268 9.429 50.9218 10.228 51.1188 11.071L47.6988 12.148C47.3228 11.178 46.8108 10.488 46.1648 10.075C45.5188 9.645 44.7018 9.429 43.7148 9.429C43.1578 9.429 42.6548 9.545 42.2068 9.779C41.7768 10.012 41.4348 10.317 41.1838 10.694C40.9508 11.054 40.8338 11.421 40.8338 11.798C40.8338 12.39 41.0308 12.911 41.4258 13.36C41.8208 13.79 42.3688 14.069 43.0688 14.194L45.9228 14.814C47.6628 15.191 49.0098 15.909 49.9608 16.968C50.9128 18.008 51.3878 19.256 51.3878 20.71C51.3878 21.751 51.1008 22.73 50.5268 23.645C49.9518 24.56 49.1268 25.305 48.0498 25.879C46.9898 26.436 45.7428 26.713 44.3068 26.713ZM53.2048 6.008H56.7318V26.39H53.2048V6.008ZM63.3538 26.713C61.8098 26.713 60.5808 26.336 59.6648 25.583C58.7678 24.828 58.3188 23.805 58.3188 22.513C58.3188 21.274 58.7408 20.251 59.5838 19.443C60.4278 18.636 61.6938 18.097 63.3808 17.828L67.7418 17.128V16.644C67.7418 15.997 67.4918 15.468 66.9878 15.054C66.5038 14.642 65.8578 14.436 65.0498 14.436C64.2958 14.436 63.6228 14.642 63.0298 15.055C62.4586 15.4461 62.0179 15.9996 61.7648 16.644L58.8848 15.244C59.3148 14.094 60.1048 13.17 61.2538 12.47C62.4028 11.77 63.7128 11.42 65.1838 11.42C66.3688 11.42 67.4188 11.645 68.3338 12.093C69.2678 12.524 69.9858 13.143 70.4888 13.951C71.0088 14.741 71.2688 15.638 71.2688 16.644V26.39H67.9308V24.828C66.7818 26.085 65.2558 26.713 63.3538 26.713ZM61.9808 22.378C61.9808 22.881 62.1688 23.285 62.5458 23.59C62.9228 23.877 63.4078 24.02 63.9998 24.02C65.0948 24.02 65.9918 23.68 66.6918 22.998C67.3918 22.298 67.7418 21.436 67.7418 20.413V19.82L64.0538 20.44C63.3538 20.583 62.8338 20.817 62.4918 21.14C62.1518 21.445 61.9808 21.858 61.9808 22.378ZM79.8668 26.552C78.2148 26.552 76.9318 26.102 76.0168 25.205C75.1188 24.29 74.6698 23.006 74.6698 21.355V14.893H72.1398V11.743H72.4088C73.1268 11.743 73.6828 11.555 74.0778 11.178C74.4728 10.801 74.6698 10.253 74.6698 9.535V8.405H78.1968V11.743H81.5628V14.893H78.1968V21.167C78.1968 22.692 79.0228 23.455 80.6738 23.455C80.9618 23.455 81.2758 23.428 81.6168 23.375V26.417C81.0418 26.507 80.4588 26.551 79.8668 26.551V26.552ZM90.0488 26.713C88.5778 26.713 87.2668 26.373 86.1188 25.69C84.999 25.0197 84.0786 24.0623 83.4528 22.917C82.8248 21.75 82.5108 20.457 82.5108 19.04C82.5108 17.604 82.8248 16.311 83.4528 15.163C84.0988 13.996 84.9698 13.081 86.0648 12.416C87.1778 11.752 88.4158 11.42 89.7798 11.42C91.2518 11.42 92.5258 11.743 93.6028 12.39C94.6553 12.9924 95.5073 13.891 96.0528 14.974C96.6278 16.069 96.9148 17.272 96.9148 18.582C96.9148 19.192 96.8518 19.686 96.7268 20.062H86.1718C86.2798 21.14 86.6918 22.002 87.4108 22.647C88.1288 23.294 89.0168 23.617 90.0758 23.617C90.8658 23.617 91.5388 23.455 92.0958 23.132C92.6679 22.7932 93.1413 22.3105 93.4688 21.732L96.3228 23.132C95.8738 24.209 95.0838 25.08 93.9528 25.744C92.8228 26.39 91.5208 26.713 90.0488 26.713ZM93.1458 17.37C93.0558 16.473 92.7058 15.746 92.0958 15.19C91.4858 14.615 90.7138 14.328 89.7798 14.328C88.8828 14.328 88.1198 14.598 87.4918 15.136C86.8628 15.656 86.4508 16.401 86.2528 17.37H93.1458Z" fill="#002E25"/>
</g>
</g>
<defs>
<clipPath id="clip0_18002_10135">
<rect width="98" height="32" fill="white" transform="translate(0 0.889999)"/>
</clipPath>
<clipPath id="clip1_18002_10135">
<rect width="98" height="32" fill="white" transform="translate(0 0.889999)"/>
</clipPath>
</defs>
</svg>
