<svg width="117" height="37" viewBox="0 0 117 37" fill="none" xmlns="http://www.w3.org/2000/svg">
<g clip-path="url(#clip0_18002_26390)">
<g clip-path="url(#clip1_18002_26390)">
<path d="M28.875 18.1401C28.875 24.1462 24.0061 29.0151 18 29.0151C11.9939 29.0151 7.125 24.1462 7.125 18.1401C7.125 12.134 11.9939 7.26514 18 7.26514C24.0061 7.26514 28.875 12.134 28.875 18.1401Z" stroke="#CDFA89" stroke-width="2.414" stroke-linecap="round" stroke-linejoin="round"/>
<path d="M18 10.6411C19.9891 10.6411 21.8968 11.4313 23.3033 12.8378C24.7098 14.2443 25.5 16.152 25.5 18.1411H10.5C10.5 16.152 11.2902 14.2443 12.6967 12.8378C14.1032 11.4313 16.0109 10.6411 18 10.6411Z" fill="#CDFA89"/>
<path d="M52.816 31.5241C50.939 31.5241 49.306 31.1721 47.92 30.4681C46.555 29.7641 45.488 28.8781 44.72 27.8121C43.952 26.7241 43.461 25.5931 43.248 24.4201L47.344 23.3321C47.664 24.6331 48.304 25.6471 49.264 26.3721C50.224 27.0971 51.429 27.4601 52.88 27.4601C53.99 27.4601 54.885 27.1831 55.568 26.6281C56.272 26.0731 56.624 25.4121 56.624 24.6441C56.624 23.9401 56.368 23.3321 55.856 22.8201C55.366 22.2871 54.693 21.9351 53.84 21.7641L50.256 21.0601C48.357 20.6971 46.864 19.8761 45.776 18.5961C44.688 17.3161 44.144 15.7591 44.144 13.9241C44.1372 12.6669 44.517 11.4381 45.232 10.4041C45.9802 9.31472 46.9934 8.43373 48.176 7.84407C49.3967 7.22931 50.7453 6.91135 52.112 6.91607C53.882 6.91607 55.387 7.21507 56.624 7.81207C57.861 8.40907 58.821 9.16707 59.504 10.0841C60.208 10.9801 60.677 11.9291 60.912 12.9321L56.848 14.2121C56.4 13.0601 55.792 12.2391 55.024 11.7481C54.256 11.2361 53.285 10.9801 52.112 10.9801C51.4898 10.9711 50.8747 11.1139 50.32 11.3961C49.808 11.6731 49.403 12.0361 49.104 12.4841C48.827 12.9111 48.688 13.3481 48.688 13.7961C48.688 14.5001 48.923 15.1191 49.392 15.6521C49.862 16.1641 50.512 16.4951 51.344 16.6441L54.736 17.3801C56.806 17.8281 58.406 18.6811 59.536 19.9401C60.666 21.1771 61.232 22.6601 61.232 24.3881C61.232 25.6251 60.891 26.7881 60.208 27.8761C59.525 28.9641 58.544 29.8491 57.264 30.5321C56.005 31.1931 54.523 31.5241 52.816 31.5241ZM63.391 6.91607H67.583V31.1401H63.39L63.391 6.91607ZM75.453 31.5241C73.619 31.5241 72.157 31.0761 71.069 30.1801C70.003 29.2841 69.469 28.0681 69.469 26.5321C69.469 25.0601 69.971 23.8441 70.973 22.8841C71.976 21.9241 73.48 21.2841 75.485 20.9641L80.669 20.1321V19.5561C80.669 18.7881 80.371 18.1591 79.773 17.6681C79.197 17.1781 78.429 16.9321 77.469 16.9321C76.573 16.9321 75.773 17.1771 75.069 17.6681C74.39 18.1327 73.8661 18.7904 73.565 19.5561L70.141 17.8921C70.653 16.5271 71.591 15.4281 72.957 14.5961C74.323 13.7641 75.88 13.3481 77.629 13.3481C79.037 13.3481 80.285 13.6151 81.373 14.1481C82.483 14.6601 83.336 15.3961 83.933 16.3561C84.552 17.2951 84.861 18.3611 84.861 19.5561V31.1401H80.893V29.2841C79.528 30.7771 77.715 31.5241 75.453 31.5241ZM73.821 26.3721C73.821 26.9691 74.045 27.4491 74.493 27.8121C74.941 28.1531 75.517 28.3241 76.221 28.3241C77.523 28.3241 78.589 27.9191 79.421 27.1081C80.253 26.2761 80.669 25.2521 80.669 24.0361V23.3321L76.285 24.0681C75.453 24.2381 74.835 24.5161 74.429 24.9001C74.024 25.2631 73.821 25.7531 73.821 26.3721ZM95.079 31.3321C93.117 31.3321 91.591 30.7991 90.503 29.7321C89.437 28.6441 88.903 27.1191 88.903 25.1561V17.4761H85.895V13.7321H86.215C87.069 13.7321 87.73 13.5081 88.199 13.0601C88.669 12.6121 88.903 11.9611 88.903 11.1081V9.76407H93.095V13.7321H97.095V17.4761H93.095V24.9321C93.095 26.7451 94.077 27.6521 96.039 27.6521C96.4143 27.6493 96.7888 27.6172 97.159 27.5561V31.1721C96.4709 31.2792 95.7755 31.3327 95.079 31.3321ZM107.182 31.5241C105.432 31.5241 103.875 31.1191 102.51 30.3081C101.179 29.5111 100.086 28.3732 99.342 27.0121C98.595 25.6251 98.222 24.0891 98.222 22.4041C98.222 20.6971 98.595 19.1611 99.342 17.7961C100.11 16.4091 101.144 15.3211 102.446 14.5321C103.768 13.7421 105.24 13.3481 106.862 13.3481C108.611 13.3481 110.126 13.7321 111.406 14.5001C112.657 15.2164 113.67 16.2847 114.318 17.5721C115 18.8731 115.342 20.3021 115.342 21.8601C115.342 22.5851 115.267 23.1721 115.118 23.6201H102.574C102.702 24.9001 103.192 25.9241 104.046 26.6921C104.899 27.4601 105.955 27.8441 107.214 27.8441C108.152 27.8441 108.952 27.6521 109.614 27.2681C110.294 26.8651 110.856 26.2915 111.246 25.6041L114.638 27.2681C114.104 28.5481 113.166 29.5831 111.822 30.3721C110.478 31.1401 108.931 31.5241 107.182 31.5241ZM110.862 20.4201C110.755 19.3531 110.339 18.4901 109.614 17.8281C108.888 17.1451 107.971 16.8041 106.862 16.8041C105.795 16.8041 104.888 17.1241 104.142 17.7641C103.395 18.3831 102.904 19.2681 102.67 20.4201H110.862Z" fill="white"/>
</g>
</g>
<defs>
<clipPath id="clip0_18002_26390">
<rect width="117" height="36" fill="white" transform="translate(0 0.140137)"/>
</clipPath>
<clipPath id="clip1_18002_26390">
<rect width="117" height="36" fill="white" transform="translate(0 0.140137)"/>
</clipPath>
</defs>
</svg>
