<svg width="65" height="65" viewBox="0 0 65 65" fill="none" xmlns="http://www.w3.org/2000/svg">
<rect x="0.330078" y="0.359985" width="64" height="64" rx="32" fill="#F3F7F6"/>
<g clip-path="url(#clip0_18002_1936)">
<g clip-path="url(#clip1_18002_1936)">
<path d="M28.3301 29.86C30.054 29.86 31.7073 29.1752 32.9263 27.9562C34.1453 26.7372 34.8301 25.0839 34.8301 23.36C34.8301 25.0839 35.5149 26.7372 36.7339 27.9562C37.9529 29.1752 39.6062 29.86 41.3301 29.86C39.6062 29.86 37.9529 30.5448 36.7339 31.7638C35.5149 32.9828 34.8301 34.6361 34.8301 36.36C34.8301 34.6361 34.1453 32.9828 32.9263 31.7638C31.7073 30.5448 30.054 29.86 28.3301 29.86ZM24.3301 36.86C25.2583 36.86 26.1486 36.4912 26.805 35.8349C27.4613 35.1785 27.8301 34.2882 27.8301 33.36C27.8301 34.2882 28.1988 35.1785 28.8552 35.8349C29.5116 36.4912 30.4018 36.86 31.3301 36.86C30.4018 36.86 29.5116 37.2287 28.8552 37.8851C28.1988 38.5415 27.8301 39.4317 27.8301 40.36C27.8301 39.4317 27.4613 38.5415 26.805 37.8851C26.1486 37.2287 25.2583 36.86 24.3301 36.86Z" stroke="#002E25" stroke-width="1.5" stroke-linecap="round" stroke-linejoin="round"/>
</g>
</g>
<defs>
<clipPath id="clip0_18002_1936">
<rect width="32" height="32" fill="white" transform="translate(16.3301 16.36)"/>
</clipPath>
<clipPath id="clip1_18002_1936">
<rect width="32" height="32" fill="white" transform="translate(16.3301 16.36)"/>
</clipPath>
</defs>
</svg>
