<svg width="17" height="17" viewBox="0 0 17 17" fill="none" xmlns="http://www.w3.org/2000/svg">
<path d="M6.87193 0.492067C8.58315 0.174959 10.3515 0.424613 11.9081 1.203C12.2785 1.38829 12.4293 1.83938 12.244 2.20984C12.0587 2.5802 11.6076 2.73006 11.2372 2.5448C9.97242 1.91233 8.53576 1.70902 7.14536 1.96668C5.75493 2.22437 4.4862 2.92881 3.53208 3.97254C2.57799 5.01628 1.9904 6.34293 1.85825 7.75086C1.72612 9.15867 2.05658 10.5713 2.79966 11.7743C3.54292 12.9774 4.65914 13.9059 5.97739 14.4178C7.29551 14.9296 8.74508 14.9973 10.1053 14.6112C11.4656 14.225 12.6629 13.4053 13.5155 12.2772C14.368 11.1492 14.8295 9.77413 14.8299 8.36023C14.83 7.94608 15.1658 7.61023 15.5799 7.61023C15.9941 7.61033 16.33 7.94602 16.3299 8.36023C16.3295 10.1007 15.7613 11.794 14.7118 13.1825C13.6623 14.5708 12.1887 15.5793 10.5145 16.0546C8.84025 16.5298 7.0568 16.4453 5.43443 15.8153C3.81212 15.1853 2.43905 14.0439 1.52427 12.5634C0.60949 11.0826 0.202436 9.34312 0.365089 7.61023C0.527826 5.87751 1.25139 4.24534 2.42564 2.96082C3.5999 1.67628 5.16069 0.809247 6.87193 0.492067ZM15.2997 2.32996C15.5926 2.03706 16.0673 2.03706 16.3602 2.32996C16.653 2.62286 16.6531 3.09764 16.3602 3.3905L8.86021 10.8905C8.56734 11.1833 8.09253 11.1833 7.79966 10.8905L4.29966 7.3905L4.2479 7.33386C4.00753 7.03932 4.02512 6.6046 4.29966 6.32996C4.57429 6.05533 5.00898 6.03781 5.30357 6.2782L5.36021 6.32996L8.32993 9.29968L15.2997 2.32996Z" fill="#002E25"/>
</svg>
