<svg width="24" height="25" viewBox="0 0 24 25" fill="none" xmlns="http://www.w3.org/2000/svg">
<g clip-path="url(#clip0_18002_2091)">
<g clip-path="url(#clip1_18002_2091)">
<path d="M6.16602 15.084C6.93022 15.8585 7.84007 16.4742 8.8432 16.8956C9.84633 17.3171 10.9229 17.5359 12.011 17.5395C13.099 17.5432 14.177 17.3316 15.183 16.9169C16.1889 16.5022 17.1029 15.8926 17.8722 15.1232C18.6416 14.3538 19.2512 13.4399 19.6659 12.4339C20.0806 11.428 20.2922 10.35 20.2886 9.26194C20.2849 8.17389 20.0661 7.09731 19.6446 6.09418C19.2232 5.09105 18.6075 4.18119 17.833 3.41699M12 17.5V20.5M8.50002 20.5H15.5" stroke="black" stroke-width="1.5" stroke-linecap="round" stroke-linejoin="round"/>
<path d="M17.25 9.25C17.25 10.6424 16.6969 11.9777 15.7123 12.9623C14.7277 13.9469 13.3924 14.5 12 14.5C10.6076 14.5 9.27226 13.9469 8.28769 12.9623C7.30312 11.9777 6.75 10.6424 6.75 9.25C6.75 7.85761 7.30312 6.52226 8.28769 5.53769C9.27226 4.55312 10.6076 4 12 4C13.3924 4 14.7277 4.55312 15.7123 5.53769C16.6969 6.52226 17.25 7.85761 17.25 9.25Z" stroke="black" stroke-width="1.5" stroke-linecap="round" stroke-linejoin="round"/>
</g>
</g>
<defs>
<clipPath id="clip0_18002_2091">
<rect width="24" height="24" fill="white" transform="translate(0 0.25)"/>
</clipPath>
<clipPath id="clip1_18002_2091">
<rect width="24" height="24" fill="white" transform="translate(0 0.25)"/>
</clipPath>
</defs>
</svg>
